<?xml version="1.0" encoding="utf-8"?>
<!-- Generator: Adobe Illustrator 16.0.0, SVG Export Plug-In . SVG Version: 6.00 Build 0)  -->
<!DOCTYPE svg PUBLIC "-//W3C//DTD SVG 1.1//EN" "http://www.w3.org/Graphics/SVG/1.1/DTD/svg11.dtd">
<svg version="1.1" id="Layer_1" xmlns="http://www.w3.org/2000/svg" xmlns:xlink="http://www.w3.org/1999/xlink" x="0px" y="0px"
	 width="200px" height="200px" viewBox="0 0 200 200" enable-background="new 0 0 200 200" xml:space="preserve">
<g opacity="0.8">
	<path fill="#4D4D4D" d="M149.69,17.261H60.791c-2.817,0-5.1,2.284-5.1,5.097v144.361c0,2.817,2.282,5.1,5.1,5.1h88.899
		c2.812,0,5.095-2.282,5.095-5.1V22.358C154.785,19.545,152.503,17.261,149.69,17.261L149.69,17.261z M65.887,142.079V47h78.703
		v95.079H65.887z M127,27.457v0.313c0,2.815,2.28,5.097,5.098,5.097c2.813,0,5.099-2.281,5.099-5.097v-0.313h7.398v9.349H65.887
		v-9.349H127z M65.887,161.623v-9.351h32.589c1.115,2.635,3.727,4.485,6.763,4.485c3.038,0,5.651-1.851,6.765-4.485h32.587v9.351
		H65.887z M65.887,161.623"/>
</g>
</svg>
