<?xml version="1.0" encoding="utf-8"?>
<!-- Generator: Adobe Illustrator 16.0.0, SVG Export Plug-In . SVG Version: 6.00 Build 0)  -->
<!DOCTYPE svg PUBLIC "-//W3C//DTD SVG 1.1//EN" "http://www.w3.org/Graphics/SVG/1.1/DTD/svg11.dtd">
<svg version="1.1" id="Layer_1" xmlns="http://www.w3.org/2000/svg" xmlns:xlink="http://www.w3.org/1999/xlink" x="0px" y="0px"
	 width="200px" height="200px" viewBox="0 0 200 200" enable-background="new 0 0 200 200" xml:space="preserve">
<path opacity="0.8" fill="#004181" d="M157.963,87c0.754,0,1.368-0.612,1.368-1.368c0-0.754-0.614-1.366-1.368-1.366H137V71.664
	h20.963c0.754,0,1.368-0.614,1.368-1.368c0-0.756-0.614-1.368-1.368-1.368H137V51.54c0-0.756-0.613-1.368-1.367-1.368
	c-0.758,0-1.368,0.612-1.368,1.368v17.388H74.769V51.54c0-0.756-0.612-1.368-1.368-1.368s-1.365,0.612-1.365,1.368v17.388H51.07
	c-0.754,0-1.366,0.612-1.366,1.368c0,0.754,0.612,1.366,1.366,1.366h20.965v12.605H51.07c-0.754,0-1.366,0.612-1.366,1.366
	c0,0.756,0.612,1.368,1.366,1.368h20.965v42.019H51.07c-0.754,0-1.366,0.613-1.366,1.367c0,0.756,0.612,1.365,1.366,1.365h20.965
	v23.068c0,0.756,0.609,1.367,1.365,1.367s1.368-0.611,1.368-1.367v-23.068h59.496v23.068c0,0.756,0.61,1.367,1.368,1.367
	c0.754,0,1.367-0.611,1.367-1.367v-23.068h20.963c0.754,0,1.368-0.609,1.368-1.365c0-0.754-0.614-1.367-1.368-1.367H137V87H157.963z
	 M134.265,71.662v12.605h-42.37l4.655-12.605H134.265z M74.769,71.662h18.865l-4.654,12.605H74.769V71.662z M87.971,87
	l-13.202,35.738V87H87.971z M90.935,129.02l3.246-9.414h20.286l3.243,9.414H90.935z M134.265,129.02h-13.662l-3.866-11.225
	c-0.192-0.553-0.712-0.924-1.294-0.924H93.204c-0.584,0-1.102,0.371-1.293,0.924l-3.869,11.225H75.363L90.883,87h11.546
	l-6.792,19.779c-0.144,0.418-0.077,0.877,0.181,1.234c0.256,0.363,0.67,0.574,1.111,0.574h14.788c0.441,0,0.857-0.211,1.112-0.574
	c0.257-0.357,0.325-0.816,0.181-1.234L106.218,87h28.047V129.02z M104.323,89.902l5.479,15.952H98.846L104.323,89.902z
	 M104.323,89.902"/>
</svg>
