<?xml version="1.0" encoding="utf-8"?>
<!-- Generator: Adobe Illustrator 16.0.0, SVG Export Plug-In . SVG Version: 6.00 Build 0)  -->
<!DOCTYPE svg PUBLIC "-//W3C//DTD SVG 1.1//EN" "http://www.w3.org/Graphics/SVG/1.1/DTD/svg11.dtd">
<svg version="1.1" id="Layer_1" xmlns="http://www.w3.org/2000/svg" xmlns:xlink="http://www.w3.org/1999/xlink" x="0px" y="0px"
	 width="200px" height="200px" viewBox="0 0 200 200" enable-background="new 0 0 200 200" xml:space="preserve">
<g opacity="0.8">
	<path fill="#004181" d="M67.763,76.233c0,1.018-0.827,1.843-1.843,1.843h-0.519c-1.018,0-1.844-0.825-1.844-1.843
		s0.826-1.843,1.844-1.843h0.519C66.936,74.39,67.763,75.215,67.763,76.233L67.763,76.233z M149.604,158.794
		c1.576,2.791,0.584,6.343-2.209,7.916c-0.002,0.004-0.007,0.004-0.01,0.007c-0.877,0.491-1.846,0.744-2.828,0.744
		c-0.527,0-1.056-0.075-1.578-0.221c-1.498-0.419-2.742-1.39-3.503-2.738l-4.834-8.576l-4.066,2.294
		c-0.573,0.323-1.277,0.314-1.842-0.021c-0.567-0.334-0.913-0.944-0.905-1.604l0.201-20.982c0.006-0.659,0.364-1.267,0.938-1.588
		c0.575-0.324,1.277-0.316,1.844,0.02l18.059,10.689c0.565,0.334,0.913,0.947,0.903,1.604c-0.004,0.66-0.362,1.264-0.936,1.587
		l-4.066,2.291L149.604,158.794z M146.394,160.604l-5.741-10.182c-0.239-0.426-0.302-0.929-0.169-1.399
		c0.13-0.469,0.444-0.871,0.871-1.112l2.892-1.628l-12.561-7.437l-0.143,14.597l2.892-1.631c0.287-0.163,0.599-0.239,0.907-0.239
		c0.643,0,1.269,0.34,1.604,0.939l5.743,10.181c0.275,0.49,0.73,0.845,1.28,0.997c0.549,0.154,1.123,0.088,1.614-0.19
		c0.002-0.002,0.004-0.002,0.007-0.002c0.489-0.278,0.842-0.732,0.992-1.279C146.736,161.667,146.669,161.095,146.394,160.604
		L146.394,160.604z M129.295,130.242h6.75c1.016,0,1.841-0.825,1.841-1.843s-0.825-1.845-1.841-1.845h-6.75
		c-1.018,0-1.844,0.827-1.844,1.845S128.277,130.242,129.295,130.242L129.295,130.242z M59.044,74.39h-0.521
		c-1.017,0-1.842,0.825-1.842,1.843s0.825,1.843,1.842,1.843h0.521c1.018,0,1.845-0.825,1.845-1.843S60.062,74.39,59.044,74.39
		L59.044,74.39z M150.333,126.555h-6.75c-1.016,0-1.843,0.827-1.843,1.845s0.827,1.843,1.843,1.843h6.75
		c1.019,0,1.844-0.825,1.844-1.843S151.352,126.555,150.333,126.555L150.333,126.555z M72.798,74.39h-0.521
		c-1.02,0-1.844,0.825-1.844,1.843s0.824,1.843,1.844,1.843h0.521c1.016,0,1.839-0.825,1.839-1.843S73.813,74.39,72.798,74.39
		L72.798,74.39z M86.428,126.555c-1.021,0-1.845,0.827-1.845,1.845s0.824,1.843,1.845,1.843h6.745c1.018,0,1.843-0.825,1.843-1.843
		s-0.825-1.845-1.843-1.845H86.428z M100.715,126.555c-1.018,0-1.843,0.827-1.843,1.845s0.825,1.843,1.843,1.843h6.748
		c1.02,0,1.844-0.825,1.844-1.843s-0.824-1.845-1.844-1.845H100.715z M73.668,90.552v36.003h5.216c1.017,0,1.842,0.827,1.842,1.845
		s-0.825,1.843-1.842,1.843h-5.216v7.426c0,1.018-0.824,1.845-1.843,1.845H60.414c-1.018,0-1.842-0.827-1.842-1.845V90.552
		c0-1.018,0.824-1.845,1.842-1.845h11.411C72.844,88.707,73.668,89.534,73.668,90.552L73.668,90.552z M69.982,92.395h-7.724v43.43
		h7.724V92.395z M118.379,105.036c1.02,0,1.844-0.825,1.844-1.842v-6.75c0-1.017-0.824-1.842-1.844-1.842
		c-1.018,0-1.842,0.825-1.842,1.842v6.75C116.537,104.211,117.361,105.036,118.379,105.036L118.379,105.036z M118.379,133.617
		c1.02,0,1.844-0.825,1.844-1.843v-1.532h1.529c1.021,0,1.846-0.825,1.846-1.843s-0.824-1.845-1.846-1.845h-1.529v-1.53
		c0-1.019-0.824-1.844-1.844-1.844c-1.018,0-1.842,0.825-1.842,1.844v1.53h-1.529c-1.02,0-1.848,0.827-1.848,1.845
		s0.828,1.843,1.848,1.843h1.529v1.532C116.537,132.792,117.361,133.617,118.379,133.617L118.379,133.617z M116.537,117.481
		c0,1.02,0.824,1.845,1.842,1.845c1.02,0,1.844-0.825,1.844-1.845v-6.746c0-1.018-0.824-1.844-1.844-1.844
		c-1.018,0-1.842,0.826-1.842,1.844V117.481z M160.125,73.634v69.104c0,2.85-2.317,5.168-5.167,5.168
		c-1.02,0-1.845-0.825-1.845-1.845c0-1.018,0.825-1.843,1.845-1.843c0.815,0,1.48-0.665,1.48-1.48V83.999h-36.216v4.905
		c0,1.018-0.824,1.843-1.844,1.843c-1.018,0-1.842-0.826-1.842-1.843v-4.905H53.718v58.739c0,0.815,0.665,1.48,1.481,1.48h61.338
		v-4.902c0-1.02,0.824-1.845,1.842-1.845c1.02,0,1.844,0.825,1.844,1.845v4.902h2.184c1.018,0,1.841,0.825,1.841,1.843
		c0,1.02-0.823,1.845-1.841,1.845H55.199c-2.851,0-5.168-2.318-5.168-5.168V73.634c0-2.85,2.317-5.168,5.168-5.168h99.759
		C157.808,68.465,160.125,70.784,160.125,73.634L160.125,73.634z M156.438,73.634c0-0.816-0.665-1.482-1.48-1.482H55.199
		c-0.816,0-1.481,0.667-1.481,1.482v6.68h102.721V73.634z M156.438,73.634"/>
</g>
</svg>
