<?xml version="1.0" encoding="utf-8"?>
<!-- Generator: Adobe Illustrator 16.0.0, SVG Export Plug-In . SVG Version: 6.00 Build 0)  -->
<!DOCTYPE svg PUBLIC "-//W3C//DTD SVG 1.1//EN" "http://www.w3.org/Graphics/SVG/1.1/DTD/svg11.dtd">
<svg version="1.1" id="Layer_1" xmlns="http://www.w3.org/2000/svg" xmlns:xlink="http://www.w3.org/1999/xlink" x="0px" y="0px"
	 width="200px" height="200px" viewBox="0 0 200 200" enable-background="new 0 0 200 200" xml:space="preserve">
<g opacity="0.8">
	<path fill="#004181" d="M57.275,42.83v114.34h91.871V42.83H57.275z M144.333,152.354H62.089V47.643h82.244V152.354z
		 M144.333,152.354"/>
	<path fill="#004181" d="M85.149,86.627c9.409,0,17.06-7.653,17.06-17.057c0-9.408-7.65-17.061-17.06-17.061
		c-9.406,0-17.059,7.653-17.059,17.061C68.091,78.975,75.743,86.627,85.149,86.627L85.149,86.627z M97.156,67.163h-9.599v-9.598
		C92.383,58.531,96.189,62.34,97.156,67.163L97.156,67.163z M82.742,57.565v14.412h14.414c-1.123,5.602-6.079,9.836-12.007,9.836
		c-6.751,0-12.244-5.493-12.244-12.242C72.905,63.642,77.141,58.685,82.742,57.565L82.742,57.565z M82.742,57.565"/>
	<rect x="112.638" y="52.51" fill="#004181" width="24.072" height="4.816"/>
	<rect x="112.638" y="67.426" fill="#004181" width="24.072" height="4.816"/>
	<rect x="112.638" y="82.343" fill="#004181" width="24.072" height="4.812"/>
	<rect x="67.901" y="97.26" fill="#004181" width="68.809" height="4.812"/>
	<path fill="#004181" d="M140.022,109.561H66.399v33.201h73.623V109.561z M71.215,114.377h26.182v23.568H71.215V114.377z
		 M135.207,137.945h-32.998v-23.568h32.998V137.945z M135.207,137.945"/>
</g>
</svg>
