<?xml version="1.0" encoding="utf-8"?>
<!-- Generator: Adobe Illustrator 16.0.0, SVG Export Plug-In . SVG Version: 6.00 Build 0)  -->
<!DOCTYPE svg PUBLIC "-//W3C//DTD SVG 1.1//EN" "http://www.w3.org/Graphics/SVG/1.1/DTD/svg11.dtd">
<svg version="1.1" id="Layer_1" xmlns="http://www.w3.org/2000/svg" xmlns:xlink="http://www.w3.org/1999/xlink" x="0px" y="0px"
	 width="200px" height="200px" viewBox="0 0 200 200" enable-background="new 0 0 200 200" xml:space="preserve">
<path opacity="0.8" fill="#4D4D4D" d="M184.085,134.923h-7.629V48.496c0-2.7-2.189-4.889-4.892-4.889H28.436
	c-2.7,0-4.889,2.189-4.889,4.889v86.426h-7.63c-2.701,0-4.888,2.19-4.888,4.889v10.965c0,1.663,0.843,3.212,2.242,4.11
	c1.616,1.042,17.781,10.167,86.729,10.167c68.952,0,85.116-9.125,86.734-10.167c1.396-0.898,2.238-2.447,2.238-4.11v-10.965
	C188.972,137.112,186.785,134.923,184.085,134.923L184.085,134.923z M33.323,53.384h61.789V54c0,2.701,2.189,4.889,4.887,4.889
	c2.702,0,4.89-2.188,4.89-4.889v-0.616h61.789v81.538H33.323V53.384z M179.196,147.623c-6.145,2.242-26.453,7.651-79.197,7.651
	c-52.262,0-72.866-5.425-79.194-7.696v-2.879h92.798v1.384c0,2.699,2.189,4.89,4.887,4.89c2.702,0,4.892-2.19,4.892-4.89v-1.384
	h5.083v1.384c0,2.699,2.189,4.89,4.89,4.89c2.699,0,4.889-2.19,4.889-4.89v-1.384h40.953V147.623z M179.196,147.623"/>
</svg>
