<?xml version="1.0" encoding="utf-8"?>
<!-- Generator: Adobe Illustrator 16.0.0, SVG Export Plug-In . SVG Version: 6.00 Build 0)  -->
<!DOCTYPE svg PUBLIC "-//W3C//DTD SVG 1.1//EN" "http://www.w3.org/Graphics/SVG/1.1/DTD/svg11.dtd">
<svg version="1.1" id="Layer_1" xmlns="http://www.w3.org/2000/svg" xmlns:xlink="http://www.w3.org/1999/xlink" x="0px" y="0px"
	 width="200px" height="200px" viewBox="0 0 200 200" enable-background="new 0 0 200 200" xml:space="preserve">
<path opacity="0.8" fill="#4D4D4D" d="M154.786,48.375h-1.538v-7.971c0-0.851-0.688-1.539-1.536-1.539h-6.153
	c-0.851,0-1.538,0.688-1.538,1.539v7.971h-1.54c-2.01,0-3.884,0.797-5.276,2.247c-1.395,1.449-2.119,3.353-2.04,5.36l1.485,38.204
	c0.146,3.723-0.767,7.396-2.633,10.621c-0.427,0.734-0.176,1.674,0.561,2.102c0.243,0.141,0.508,0.205,0.77,0.205
	c0.532,0,1.048-0.273,1.334-0.766c2.159-3.729,3.209-7.978,3.043-12.282l-1.485-38.202c-0.044-1.166,0.374-2.269,1.182-3.108
	c0.436-0.453,0.956-0.792,1.522-1.013v87.035c0,9.082,2.188,18.156,6.322,26.238c0.263,0.514,0.793,0.838,1.369,0.838
	c0.579,0,1.107-0.324,1.371-0.838c4.134-8.082,6.321-17.156,6.321-26.238V49.914C156.326,49.064,155.637,48.375,154.786,48.375
	L154.786,48.375z M144.021,58.165h9.228v75.802h-9.228V58.165z M144.021,55.09v-3.638h9.228v3.638H144.021z M147.097,41.942h3.076
	v6.433h-3.076V41.942z M148.634,160.73c-3.025-6.896-4.613-14.422-4.613-21.953v-1.734h9.228v1.734
	C153.248,146.309,151.662,153.834,148.634,160.73L148.634,160.73z M148.634,160.73"/>
<path opacity="0.8" fill="#4D4D4D" d="M65.036,37.433h-6.781c-2.372,0-4.303,1.93-4.303,4.3v107.478
	c0,0.197,0.038,0.396,0.113,0.582l6.154,15.102c0.236,0.578,0.799,0.959,1.425,0.959c0.625,0,1.188-0.381,1.425-0.959l6.153-15.102
	c0.075-0.186,0.113-0.385,0.113-0.582V41.733C69.336,39.362,67.405,37.433,65.036,37.433L65.036,37.433z M58.255,40.51h6.781
	c0.674,0,1.222,0.548,1.222,1.223v4.091H57.03v-4.091C57.03,41.058,57.578,40.51,58.255,40.51L58.255,40.51z M60.446,157.295
	l-2.668-6.547h7.731l-2.665,6.547H60.446z M57.03,147.672V54.215h3.076v93.457H57.03z M63.183,147.672V54.215h3.075v93.457H63.183z
	 M57.03,51.138v-2.237h9.228v2.237H57.03z M57.03,51.138"/>
<path opacity="0.8" fill="#4D4D4D" d="M99.004,38.865H79.9c-0.849,0-1.538,0.688-1.538,1.539v123.912
	c0,0.85,0.689,1.537,1.538,1.537h19.104c0.849,0,1.538-0.688,1.538-1.537V40.404C100.542,39.554,99.853,38.865,99.004,38.865
	L99.004,38.865z M97.466,162.777H81.438v-3.439h2.938c0.85,0,1.538-0.689,1.538-1.537c0-0.85-0.688-1.537-1.538-1.537h-2.938v-4.846
	h2.938c0.85,0,1.538-0.688,1.538-1.535c0-0.85-0.688-1.543-1.538-1.543h-2.938v-4.84h6.67c0.848,0,1.538-0.689,1.538-1.539
	s-0.69-1.537-1.538-1.537h-6.67v-4.846h2.938c0.85,0,1.538-0.688,1.538-1.537s-0.688-1.539-1.538-1.539h-2.938v-4.844h2.938
	c0.85,0,1.538-0.689,1.538-1.539s-0.688-1.537-1.538-1.537h-2.938v-4.846h2.938c0.85,0,1.538-0.688,1.538-1.537
	c0-0.848-0.688-1.539-1.538-1.539h-2.938v-4.842h6.67c0.848,0,1.538-0.688,1.538-1.539c0-0.848-0.69-1.535-1.538-1.535h-6.67v-4.848
	h2.938c0.85,0,1.538-0.686,1.538-1.537c0-0.85-0.688-1.539-1.538-1.539h-2.938v-4.844h2.938c0.85,0,1.538-0.688,1.538-1.537
	c0-0.85-0.688-1.539-1.538-1.539h-2.938v-4.843h2.938c0.85,0,1.538-0.689,1.538-1.539c0-0.849-0.688-1.539-1.538-1.539h-2.938
	v-4.843h6.67c0.848,0,1.538-0.689,1.538-1.538c0-0.85-0.69-1.539-1.538-1.539h-6.67v-4.843h2.938c0.85,0,1.538-0.688,1.538-1.538
	c0-0.85-0.688-1.539-1.538-1.539h-2.938v-4.843h2.938c0.85,0,1.538-0.689,1.538-1.538c0-0.851-0.688-1.539-1.538-1.539h-2.938
	v-4.844h2.938c0.85,0,1.538-0.688,1.538-1.538c0-0.849-0.688-1.539-1.538-1.539h-2.938v-4.843h6.67c0.848,0,1.538-0.688,1.538-1.538
	s-0.69-1.539-1.538-1.539h-6.67v-3.438h16.027V162.777z M97.466,162.777"/>
<path opacity="0.8" fill="#4D4D4D" d="M127.47,96.206h3.495c0.851,0,1.538-0.688,1.538-1.538c0-0.849-0.688-1.539-1.538-1.539
	h-3.495V75.927c0-0.369-0.129-0.723-0.37-1.002l-1.812-2.111c1.234-1.687,1.9-3.713,1.9-5.837c0-4.952-3.645-9.069-8.39-9.811V54.81
	h0.979c0.85,0,1.537-0.688,1.537-1.54V40.124c0-0.85-0.688-1.539-1.537-1.539h-5.035c-0.851,0-1.538,0.689-1.538,1.539V53.27
	c0,0.852,0.688,1.54,1.538,1.54h0.979v2.356c-4.748,0.741-8.393,4.858-8.393,9.811c0,2.124,0.668,4.152,1.9,5.838l-1.808,2.11
	c-0.24,0.279-0.372,0.633-0.372,1.002v17.202h-3.495c-0.85,0-1.54,0.69-1.54,1.539c0,0.85,0.69,1.538,1.54,1.538h3.495v46.71h-0.895
	v-1.723c0-0.852-0.688-1.539-1.538-1.539s-1.538,0.688-1.538,1.539v1.98c-0.415,0.275-0.69,0.746-0.69,1.281
	c0,0.537,0.275,1.008,0.69,1.283v1.982c0,0.848,0.688,1.539,1.538,1.539s1.538-0.691,1.538-1.539v-1.725h0.895v3.496
	c0,0.27,0.073,0.535,0.208,0.771l4.827,8.312v5.74c0,0.85,0.689,1.537,1.538,1.537c0.85,0,1.54-0.688,1.54-1.537v-68.11h0.559v1.817
	c0,0.852,0.689,1.54,1.54,1.54c0.848,0,1.536-0.688,1.536-1.54v-1.817h0.561v68.11c0,0.85,0.688,1.537,1.538,1.537
	c0.85,0,1.537-0.688,1.537-1.537v-5.74l4.827-8.312c0.136-0.236,0.208-0.502,0.208-0.771v-3.496h0.895v1.725
	c0,0.848,0.688,1.539,1.538,1.539c0.851,0,1.54-0.691,1.54-1.539v-1.982c0.415-0.275,0.69-0.746,0.69-1.283
	c0-0.535-0.275-1.006-0.69-1.281v-1.98c0-0.852-0.689-1.539-1.54-1.539c-0.85,0-1.538,0.688-1.538,1.539v1.723h-0.895V96.206z
	 M116.283,41.662h1.957v10.07h-1.957V41.662z M110.406,66.977c0-3.779,3.076-6.854,6.854-6.854s6.852,3.074,6.852,6.854
	c0,1.212-0.315,2.379-0.906,3.405l-1.142-1.331c-0.417-0.489-1.097-0.664-1.702-0.441c-0.603,0.224-1.003,0.799-1.003,1.442V73.5
	c-0.675,0.218-1.377,0.329-2.099,0.329c-0.725,0-1.427-0.111-2.097-0.327v-3.449c0-0.643-0.401-1.219-1.006-1.442
	c-0.604-0.224-1.283-0.046-1.7,0.441l-1.144,1.334C110.724,69.357,110.406,68.189,110.406,66.977L110.406,66.977z M110.129,76.496
	l1.957-2.284v78.237l-1.957-3.373V76.496z M118.799,93.129v-1.818c0-0.849-0.688-1.537-1.536-1.537c-0.851,0-1.54,0.688-1.54,1.537
	v1.818h-0.559V76.683c0.682,0.146,1.382,0.223,2.097,0.223c0.714,0,1.414-0.076,2.099-0.224v16.447H118.799z M124.394,149.076
	l-1.959,3.373V74.212l1.959,2.284V149.076z M124.394,149.076"/>
</svg>
