<?xml version="1.0" encoding="utf-8"?>
<!-- Generator: Adobe Illustrator 16.0.0, SVG Export Plug-In . SVG Version: 6.00 Build 0)  -->
<!DOCTYPE svg PUBLIC "-//W3C//DTD SVG 1.1//EN" "http://www.w3.org/Graphics/SVG/1.1/DTD/svg11.dtd">
<svg version="1.1" id="Layer_1" xmlns="http://www.w3.org/2000/svg" xmlns:xlink="http://www.w3.org/1999/xlink" x="0px" y="0px"
	 width="200px" height="200px" viewBox="0 0 200 200" enable-background="new 0 0 200 200" xml:space="preserve">
<path opacity="0.8" fill="#4D4D4D" d="M106.461,63.132c-7.495-6.061-17.43-9.397-27.966-9.397c-10.539,0-20.47,3.337-27.968,9.397
	c-7.661,6.197-11.879,14.486-11.879,23.34c0,8.856,4.218,17.145,11.879,23.34c7.498,6.062,17.429,9.398,27.968,9.398
	c1.071,0,2.154-0.035,3.229-0.105l6.785,11.191c0.478,0.787,1.322,1.277,2.24,1.297c0.022,0,0.041,0,0.064,0
	c0.895,0,1.734-0.443,2.234-1.189l14.37-21.395c7.049-6.102,10.921-14.083,10.921-22.537
	C118.34,77.619,114.121,69.33,106.461,63.132L106.461,63.132z M103.462,105.303L90.93,123.898l-5.465-9.008
	c-0.492-0.812-1.367-1.299-2.302-1.299c-0.091,0-0.181,0.004-0.272,0.016c-1.455,0.146-2.934,0.219-4.396,0.219
	c-19.003,0-34.465-12.271-34.465-27.354s15.462-27.354,34.465-27.354c19.002,0,34.462,12.272,34.462,27.354
	C112.957,93.503,109.583,100.19,103.462,105.303L103.462,105.303z M103.462,105.303"/>
<path opacity="0.8" fill="#4D4D4D" d="M117.334,105.967c-4.971,4.023-7.711,9.404-7.711,15.15c0,5.488,2.514,10.67,7.089,14.629
	l9.328,13.889c0.323,0.482,0.868,0.773,1.45,0.773c0.015,0,0.026,0,0.041,0c0.596-0.016,1.143-0.334,1.454-0.844l4.405-7.266
	c0.697,0.047,1.4,0.07,2.096,0.07c6.84,0,13.287-2.166,18.154-6.1c4.971-4.023,7.711-9.404,7.711-15.152
	c0-5.746-2.74-11.127-7.711-15.15c-4.867-3.932-11.314-6.1-18.154-6.1C128.648,99.867,122.199,102.035,117.334,105.967
	L117.334,105.967z M119.28,133.342c-3.976-3.32-6.164-7.66-6.164-12.225c0-9.791,10.036-17.754,22.37-17.754
	c12.336,0,22.372,7.963,22.372,17.754s-10.036,17.756-22.372,17.756c-0.949,0-1.908-0.049-2.853-0.143
	c-0.06-0.006-0.119-0.01-0.177-0.01c-0.606,0-1.175,0.316-1.494,0.842l-3.547,5.85L119.28,133.342L119.28,133.342z M119.28,133.342"
	/>
</svg>
