<?xml version="1.0" encoding="utf-8"?>
<!-- Generator: Adobe Illustrator 16.0.0, SVG Export Plug-In . SVG Version: 6.00 Build 0)  -->
<!DOCTYPE svg PUBLIC "-//W3C//DTD SVG 1.1//EN" "http://www.w3.org/Graphics/SVG/1.1/DTD/svg11.dtd">
<svg version="1.1" id="Layer_1" xmlns="http://www.w3.org/2000/svg" xmlns:xlink="http://www.w3.org/1999/xlink" x="0px" y="0px"
	 width="200px" height="200px" viewBox="0 0 200 200" enable-background="new 0 0 200 200" xml:space="preserve">
<path opacity="0.8" fill="#004181" d="M172.678,77.875l-9.523-9.528c-0.002-0.001-0.002-0.001-0.004-0.003
	c0-0.002-0.003-0.002-0.003-0.002l-9.525-9.529c-0.758-0.756-1.783-1.182-2.855-1.182c-1.069,0-2.097,0.426-2.853,1.182
	l-4.711,4.711V39.522c0-2.229-1.808-4.036-4.035-4.036H50.377c-2.231,0-4.037,1.807-4.037,4.036v120.957
	c0,2.232,1.806,4.035,4.037,4.035h88.791c2.228,0,4.035-1.803,4.035-4.035v-47.42l29.475-29.478
	C174.257,82.005,174.257,79.451,172.678,77.875L172.678,77.875z M135.134,156.443h-80.72V43.557h80.72v28.038l-33.349,33.346
	c-0.559,0.558-0.939,1.267-1.099,2.038l-4.959,24.02c-0.276,1.33,0.141,2.711,1.099,3.672c0.765,0.762,1.795,1.18,2.855,1.18
	c0.27,0,0.545-0.027,0.812-0.084l24.022-4.959c0.771-0.158,1.478-0.539,2.036-1.098l8.582-8.58V156.443z M107.079,115.941
	l8.474,8.477l-10.679,2.203L107.079,115.941z M123.696,121.148l-13.352-13.354l40.422-40.42l3.824,3.823L129.937,95.85
	c-1.574,1.577-1.574,4.131,0,5.708c0.787,0.785,1.821,1.182,2.853,1.182c1.037,0,2.07-0.396,2.858-1.182l24.649-24.654l3.824,3.823
	L123.696,121.148z M123.696,121.148"/>
</svg>
